<svg fill="none" height="51" viewBox="0 0 51 51" width="51" xmlns="http://www.w3.org/2000/svg" xmlns:xlink="http://www.w3.org/1999/xlink"><linearGradient id="a" gradientUnits="userSpaceOnUse" x1="8.18414" x2="45.6841" y1="25.6842" y2="25.6842"><stop offset="0" stop-opacity="0"/><stop offset="1" stop-color="#7d929e"/></linearGradient><g stroke="#6f6f6f"><path d="m14.4342 15.1579-4.86804-5.99044"/><path d="m14.4342 35.4832-4.86804 5.9904"/><path d="m38.6884 16.0047 3.8595-6.7556"/><path d="m38.6884 35.5649 3.8595 6.7556"/></g><rect fill="#434343" height="20" rx="3" transform="matrix(0 -1 1 0 -50.000057 51.368343)" width="10.5263" x=".684143" y="50.6842"/><rect fill="#434343" height="20" rx="3" transform="matrix(0 -1 1 0 -10.526357 11.894643)" width="10.5263" x=".684143" y="11.2105"/><rect fill="#434343" height="20" rx="3" transform="matrix(0 -1 1 0 19.4736 41.8946)" width="10.5263" x="30.6841" y="11.2105"/><rect fill="#434343" height="20" rx="3" transform="matrix(0 -1 1 0 -20.0001 81.3683)" width="10.5263" x="30.6841" y="50.6842"/><path d="m8.68414 34.5263v-17.6842c0-1.3807 1.11929-2.5 2.49996-2.5h29.5673c1.1816 0 2.2019.8274 2.446 1.9836l1.8667 8.8421c.0719.3405.0719.6923 0 1.0328l-1.8667 8.8421c-.2441 1.1562-1.2644 1.9836-2.446 1.9836h-29.5673c-1.38067 0-2.49996-1.1193-2.49996-2.5z" fill="#d9d9d9" stroke="url(#a)"/><path d="m11.9341 32.2631v-13.1579" stroke="#d93b3b" stroke-linecap="round"/><path d="m39.9341 25.8684-9.2625 5.6291v-11.2583z" fill="#807f7f"/></svg>