<svg fill="none" height="51" viewBox="0 0 54 51" width="54" xmlns="http://www.w3.org/2000/svg" xmlns:xlink="http://www.w3.org/1999/xlink"><linearGradient id="a" gradientUnits="userSpaceOnUse" x1="8.57887" x2="48.0526" y1="25.6842" y2="25.6842"><stop offset="0" stop-opacity="0"/><stop offset="1" stop-color="#7d929e"/></linearGradient><g stroke="#6f6f6f"><path d="m15.1578 15.1579-5.1242-5.99045"/><path d="m15.1578 35.4832-5.1242 5.9904"/><path d="m40.6887 16.0047 4.0625-6.75561"/><path d="m40.6887 35.5649 4.0625 6.7556"/></g><rect fill="#434343" height="21.0526" rx="3" transform="matrix(0 -1 1 0 -50.000057 51.368343)" width="10.5263" x=".684143" y="50.6842"/><rect fill="#434343" height="21.0526" rx="3" transform="matrix(0 -1 1 0 -10.526357 11.894643)" width="10.5263" x=".684143" y="11.2105"/><rect fill="#434343" height="21.0526" rx="3" transform="matrix(0 -1 1 0 21.0526 43.4736)" width="10.5263" x="32.2631" y="11.2105"/><rect fill="#434343" height="21.0526" rx="3" transform="matrix(0 -1 1 0 -18.4211 82.9473)" width="10.5263" x="32.2631" y="50.6842"/><path d="m9.07887 34.5263v-17.6842c0-1.3807 1.11933-2.5 2.50003-2.5h31.4356c1.1717 0 2.1862.8138 2.4404 1.9576l1.9649 8.8421c.0794.3572.0794.7275 0 1.0847l-1.9649 8.8421c-.2542 1.1438-1.2687 1.9577-2.4404 1.9577h-31.4356c-1.3807 0-2.50003-1.1193-2.50003-2.5z" fill="#d9d9d9" stroke="url(#a)"/><path d="m12.5262 32.2631v-13.1579" stroke="#d93b3b" stroke-linecap="round"/><path d="m41.9999 25.8683-9.75 5.6292v-11.2583z" fill="#807f7f"/></svg>